<svg width="93" height="141" viewBox="0 0 93 141" fill="none" xmlns="http://www.w3.org/2000/svg">
<path fill-rule="evenodd" clip-rule="evenodd" d="M0.608521 39.7302L20.7578 51.3634L20.8524 58.7744L0.703051 47.1411L0.608521 39.7302ZM37.25 60.8852L86.658 89.4109L80.464 93.1912L31.0561 64.6655L37.25 60.8852ZM20.907 63.0561L0.757668 51.4229L0.852199 58.8339L21.0015 70.4671L20.907 63.0561ZM76.8854 95.3753L27.4775 66.8496L21.2835 70.6299L70.6914 99.1556L76.8854 95.3753ZM0.906815 63.1156L1.00135 70.5266L60.9188 105.12L67.1128 101.34L0.906815 63.1156ZM1.05596 74.8083L57.3402 107.304L51.1463 111.084L1.15049 82.2192L1.05596 74.8083ZM1.20511 86.501L1.29964 93.912L41.3736 117.049L47.5676 113.268L1.20511 86.501ZM1.35426 98.1937L37.795 119.233L31.601 123.013L1.44879 105.605L1.35426 98.1937ZM1.50341 109.886L1.59794 117.297L21.8286 128.977L28.0224 125.197L1.50341 109.886ZM1.65255 121.579L18.25 131.161L12.0559 134.942L1.74708 128.99L1.65255 121.579ZM1.8017 133.272L1.89623 140.683L2.28334 140.906L8.47727 137.126L1.8017 133.272Z" fill="#D83939"/>
<path fill-rule="evenodd" clip-rule="evenodd" d="M1.38482 108.566L92.2408 53.1154L46.1204 26.5577L-8.47958e-06 0L1.38482 108.566ZM21.0058 70.7994L53.6231 50.8925L37.0659 41.3582L20.5086 31.824L21.0058 70.7994Z" fill="#FF5353"/>
</svg>
