<svg width="98" height="149" viewBox="0 0 98 149" fill="none" xmlns="http://www.w3.org/2000/svg">
<path fill-rule="evenodd" clip-rule="evenodd" d="M21.6722 46.5502L0.542358 34.3829L0.596537 38.6303L21.7268 50.8299L21.6722 46.5502ZM0.714838 47.9048L0.639858 42.0266L21.7701 54.2261L21.8451 60.1044L0.714838 47.9048ZM34.0356 67.1426L38.9486 64.1441L90.7619 94.0586L85.849 97.057L34.0356 67.1426ZM97.2739 90.0842L93.6004 92.3262L41.7871 62.4117L45.3943 60.2102L48.9081 62.2336L97.2739 90.0842ZM21.8884 63.5006L0.758159 51.301L0.833141 57.1794L21.9634 69.3789L21.8884 63.5006ZM31.1971 68.875L83.0105 98.7894L78.0974 101.788L26.2841 71.8735L31.1971 68.875ZM0.951443 66.4539L0.876462 60.5756L22.0067 72.7752L22.0284 74.4708L23.4456 73.6059L75.2589 103.52L70.3459 106.519L0.951443 66.4539ZM67.5074 108.251L0.994764 69.8501L1.06975 75.7284L62.5944 111.25L67.5074 108.251ZM1.18805 85.0029L1.11307 79.1247L59.7558 112.982L54.8429 115.981L1.18805 85.0029ZM52.0043 117.713L1.23137 88.3992L1.30635 94.2775L47.0914 120.711L52.0043 117.713ZM1.42465 103.552L1.34967 97.6737L44.2528 122.444L39.3398 125.442L1.42465 103.552ZM36.5013 127.175L1.46797 106.948L1.54295 112.826L31.5883 130.173L36.5013 127.175ZM1.66126 122.101L1.58628 116.223L28.7498 131.906L23.8369 134.904L1.66126 122.101ZM20.9983 136.636L1.70458 125.497L1.77956 131.376L16.0853 139.635L20.9983 136.636ZM1.89786 140.65L1.82288 134.772L13.2468 141.367L8.33379 144.366L1.89786 140.65ZM5.49527 146.098L1.94118 144.046L1.99461 148.235L5.49527 146.098Z" fill="#702222"/>
<path fill-rule="evenodd" clip-rule="evenodd" d="M1.45225 114.076L96.7315 55.9259L48.3658 28.0753L0 0.224609L1.45225 114.076ZM22.0284 74.4708L56.2337 53.5947L38.8704 43.5963L21.5071 33.598L22.0284 74.4708Z" fill="#FF5353"/>
</svg>
